<mxfile host="app.diagrams.net" modified="2021-01-08T02:06:00.672Z" agent="5.0 (Macintosh)" etag="7DJKLtl6Y9OSd43H0_BF" version="14.1.8" type="github">
  <diagram id="9-EktbTsZVhyt2DiM2HH" name="Page-1">
    <mxGraphModel dx="1053" dy="660" grid="1" gridSize="10" guides="1" tooltips="1" connect="1" arrows="1" fold="1" page="1" pageScale="1" pageWidth="850" pageHeight="1100" math="0" shadow="0">
      <root>
        <mxCell id="0" />
        <mxCell id="1" parent="0" />
        <mxCell id="3rXxgQ3KefKo_IEXmCly-2" value="&lt;div&gt;Backend&lt;/div&gt;" style="rounded=1;whiteSpace=wrap;html=1;" vertex="1" parent="1">
          <mxGeometry x="130" y="130" width="120" height="60" as="geometry" />
        </mxCell>
        <mxCell id="3rXxgQ3KefKo_IEXmCly-3" value="&lt;div&gt;Frontend&lt;/div&gt;" style="rounded=1;whiteSpace=wrap;html=1;" vertex="1" parent="1">
          <mxGeometry x="130" y="220" width="120" height="60" as="geometry" />
        </mxCell>
        <mxCell id="3rXxgQ3KefKo_IEXmCly-4" value="Mobile" style="rounded=1;whiteSpace=wrap;html=1;" vertex="1" parent="1">
          <mxGeometry x="130" y="310" width="120" height="60" as="geometry" />
        </mxCell>
        <mxCell id="3rXxgQ3KefKo_IEXmCly-5" value="observe" style="ellipse;whiteSpace=wrap;html=1;" vertex="1" parent="1">
          <mxGeometry x="305" y="210" width="120" height="80" as="geometry" />
        </mxCell>
        <mxCell id="3rXxgQ3KefKo_IEXmCly-6" value="Toggle server" style="rounded=0;whiteSpace=wrap;html=1;" vertex="1" parent="1">
          <mxGeometry x="500" y="220" width="120" height="60" as="geometry" />
        </mxCell>
        <mxCell id="3rXxgQ3KefKo_IEXmCly-7" value="Toggle Controller" style="whiteSpace=wrap;html=1;" vertex="1" parent="1">
          <mxGeometry x="500" y="400" width="120" height="60" as="geometry" />
        </mxCell>
        <mxCell id="3rXxgQ3KefKo_IEXmCly-8" value="" style="endArrow=classic;html=1;exitX=0.5;exitY=0;exitDx=0;exitDy=0;entryX=1;entryY=0.5;entryDx=0;entryDy=0;" edge="1" parent="1" source="3rXxgQ3KefKo_IEXmCly-5" target="3rXxgQ3KefKo_IEXmCly-2">
          <mxGeometry width="50" height="50" relative="1" as="geometry">
            <mxPoint x="400" y="360" as="sourcePoint" />
            <mxPoint x="450" y="310" as="targetPoint" />
            <Array as="points">
              <mxPoint x="365" y="160" />
            </Array>
          </mxGeometry>
        </mxCell>
        <mxCell id="3rXxgQ3KefKo_IEXmCly-10" value="" style="endArrow=classic;html=1;exitX=0;exitY=0.5;exitDx=0;exitDy=0;entryX=1;entryY=0.5;entryDx=0;entryDy=0;" edge="1" parent="1" source="3rXxgQ3KefKo_IEXmCly-5" target="3rXxgQ3KefKo_IEXmCly-3">
          <mxGeometry width="50" height="50" relative="1" as="geometry">
            <mxPoint x="400" y="360" as="sourcePoint" />
            <mxPoint x="450" y="310" as="targetPoint" />
          </mxGeometry>
        </mxCell>
        <mxCell id="3rXxgQ3KefKo_IEXmCly-11" value="" style="endArrow=classic;html=1;exitX=0.5;exitY=1;exitDx=0;exitDy=0;entryX=1;entryY=0.5;entryDx=0;entryDy=0;" edge="1" parent="1" source="3rXxgQ3KefKo_IEXmCly-5" target="3rXxgQ3KefKo_IEXmCly-4">
          <mxGeometry width="50" height="50" relative="1" as="geometry">
            <mxPoint x="400" y="360" as="sourcePoint" />
            <mxPoint x="450" y="310" as="targetPoint" />
            <Array as="points">
              <mxPoint x="365" y="340" />
            </Array>
          </mxGeometry>
        </mxCell>
        <mxCell id="3rXxgQ3KefKo_IEXmCly-12" value="" style="endArrow=none;html=1;entryX=0;entryY=0.5;entryDx=0;entryDy=0;exitX=1;exitY=0.5;exitDx=0;exitDy=0;" edge="1" parent="1" source="3rXxgQ3KefKo_IEXmCly-5" target="3rXxgQ3KefKo_IEXmCly-6">
          <mxGeometry width="50" height="50" relative="1" as="geometry">
            <mxPoint x="400" y="360" as="sourcePoint" />
            <mxPoint x="450" y="310" as="targetPoint" />
          </mxGeometry>
        </mxCell>
        <mxCell id="3rXxgQ3KefKo_IEXmCly-15" value="" style="rounded=1;whiteSpace=wrap;html=1;fillColor=none;dashed=1;dashPattern=1 4;" vertex="1" parent="1">
          <mxGeometry x="110" y="110" width="160" height="280" as="geometry" />
        </mxCell>
        <mxCell id="3rXxgQ3KefKo_IEXmCly-17" value="&lt;div&gt;Observers&lt;/div&gt;" style="text;html=1;strokeColor=none;fillColor=none;align=center;verticalAlign=middle;whiteSpace=wrap;rounded=0;dashed=1;dashPattern=1 4;" vertex="1" parent="1">
          <mxGeometry x="170" y="400" width="40" height="20" as="geometry" />
        </mxCell>
        <mxCell id="3rXxgQ3KefKo_IEXmCly-18" value="&lt;div&gt;update&lt;/div&gt;" style="ellipse;whiteSpace=wrap;html=1;" vertex="1" parent="1">
          <mxGeometry x="510" y="320" width="100" height="40" as="geometry" />
        </mxCell>
        <mxCell id="3rXxgQ3KefKo_IEXmCly-19" value="" style="endArrow=none;html=1;exitX=0.5;exitY=0;exitDx=0;exitDy=0;entryX=0.5;entryY=1;entryDx=0;entryDy=0;" edge="1" parent="1" source="3rXxgQ3KefKo_IEXmCly-7" target="3rXxgQ3KefKo_IEXmCly-18">
          <mxGeometry width="50" height="50" relative="1" as="geometry">
            <mxPoint x="400" y="360" as="sourcePoint" />
            <mxPoint x="450" y="310" as="targetPoint" />
          </mxGeometry>
        </mxCell>
        <mxCell id="3rXxgQ3KefKo_IEXmCly-20" value="" style="endArrow=classic;html=1;entryX=0.5;entryY=1;entryDx=0;entryDy=0;exitX=0.5;exitY=0;exitDx=0;exitDy=0;" edge="1" parent="1" source="3rXxgQ3KefKo_IEXmCly-18" target="3rXxgQ3KefKo_IEXmCly-6">
          <mxGeometry width="50" height="50" relative="1" as="geometry">
            <mxPoint x="400" y="360" as="sourcePoint" />
            <mxPoint x="450" y="310" as="targetPoint" />
          </mxGeometry>
        </mxCell>
      </root>
    </mxGraphModel>
  </diagram>
</mxfile>
